<?xml version="1.0" encoding="UTF-8"?>
<svg xmlns="http://www.w3.org/2000/svg" xmlns:xlink="http://www.w3.org/1999/xlink" width="2835" height="2835" viewBox="0 0 2835 2835">

<path fill-rule="evenodd" fill="rgb(0%, 47.068787%, 65.818787%)" fill-opacity="1" d="M 2249.179688 964.789062 C 2361.660156 1025.160156 2403.710938 1165.058594 2343.128906 1277.289062 C 2245.351562 1458.480469 2038.289062 1543.5 1849.140625 1441.800781 C 1775.699219 1402.371094 1721.78125 1340.648438 1691.410156 1269.671875 C 1718.328125 1300.171875 1750.128906 1328.269531 1789.019531 1346.851562 C 2104.339844 1497.238281 2358.628906 1241.609375 2170.109375 1053.261719 C 2098.488281 981.71875 1969.621094 1038.601562 1921.640625 1127.648438 C 1916.238281 1137.46875 1911.949219 1147.578125 1908.578125 1157.859375 C 1910.050781 1124.199219 1918.980469 1090.238281 1936.050781 1058.480469 C 1996.628906 946.289062 2136.828125 904.328125 2249.179688 964.789062 "/>
<path fill-rule="evenodd" fill="rgb(0%, 47.068787%, 65.818787%)" fill-opacity="1" d="M 529.351562 1346.050781 C 1201.800781 957.878906 1891.890625 2035.34375 2420.300781 1346.050781 C 1921 2368.152344 1260.78125 1068.761719 529.351562 1346.050781 "/>
<path fill-rule="evenodd" fill="rgb(15.281677%, 68.164062%, 89.84375%)" fill-opacity="1" d="M 2068.03125 1822.140625 C 1479.96875 2161.601562 876.402344 1219.320312 414.339844 1822.140625 C 850.953125 928.261719 1428.359375 2064.582031 2068.03125 1822.140625 "/>
</svg>
